/* XPM */
static char *_c7d3f01655e44b7c975588a47f5cedc6Ts3zHNMtMU8MGcX[] = {
/* columns rows colors chars-per-pixel */
"32 32 6 1 ",
"  c #656565",
". c #717171",
"X c gray27",
"o c #535353",
"O c #FAFA82",
"+ c #E17B50",
/* pixels */
" .Xo.        o.       .o.       ",
".XooX.     ..oX.......XoX.......",
"oooooX.....XXooooooooooooooooooo",
"   oooXXXXXooooooo       oooo   ",
"    oo     oooo           o     ",
"    o       oo            o     ",
"   .o        o.           o     ",
"...Xo.       oX......    .o.    ",
"XXXooX..    .oOOOOOOX....XoX....",
"ooooooXX....XOOOOOOOOOoooooooooo",
"     oooooooOOOOO   OOOo      oo",
"         ooOOOOO     +O        o",
"          oOOOO      .+O       o",
"          OOOO      .X+O       o",
"         .OOO   ....Xo+O..    .o",
"XXXXX....XOOO...XXXXo+++XX....Xo",
"   ooXXXXoOOOXXXo    +++ oooooo ",
"     ooo  OOO oo    +++     oo  ",
"      o    OO  o.  ++++      o  ",
"     .o    OOO.oX.++++      .o. ",
".....Xo.    OOO++++++.......XoX.",
"XXXXXooX.....XOOO++ooooooooooooX",
"   oooooXXXXXooo    ooo    oooo ",
"    oo   ooo         o      oo  ",
"    o     o          o       o  ",
"   .o     o         .o       o. ",
"...Xo.   .o.     ...Xo.     .oX.",
"XXXooX...XoX.....XXXooX.....XooX",
" oooooooooooXXXXXo    ooXXXoo   ",
"  oo       oooo        oo       ",
"  o          o         o        ",
" .o          o         o        "
};
