/* XPM */
static char *_71e9dd2e93b41ddab707ddc04c075536R5gpR1psSBG7eZw[] = {
/* columns rows colors chars-per-pixel */
"32 32 34 1 ",
"  c #656565",
". c #717171",
"X c gray27",
"o c #535353",
"O c #7A7290",
"+ c #58526A",
"@ c #413D4F",
"# c #2C2116",
"$ c #766047",
"% c #836B52",
"& c #634E38",
"* c #78624B",
"= c #67594B",
"- c #796858",
"; c #4C3928",
": c #523F2C",
"> c #999088",
", c #AEA59D",
"< c #B0AAA2",
"1 c #B3AEA7",
"2 c #B2ACA4",
"3 c #766D66",
"4 c #81776F",
"5 c #888078",
"6 c #3E2D1E",
"7 c #7C644D",
"8 c #B9B9B9",
"9 c #727272",
"0 c #777777",
"q c #606060",
"w c gray28",
"e c gray50",
"r c #66513D",
"t c #AAA098",
/* pixels */
" .Xo.        o.       .o.       ",
".XooX. OOOOOOOOOOOOOOOOOO.......",
"oooooOO++++++++++++++++++OOooooo",
"   oO++++++++++++++++++++++Oo   ",
"   O++++++++++++++++++++++++O   ",
"  O++++@@@@@@@@@@@@@@@@@@++++O  ",
" O++++@@################@@++++O ",
"O++++@@##$%#&%#$*#=-#--##@@++++O",
"O+++@@#;#;&#;;#&;#;&##&#$#@@+++O",
"O+++@#;:#;;#;;#&;#;&&#;#;;#@+++O",
"O+++@#;:#;;#;;#::#;;##;#:;#@+++O",
"O+++@>,<>>>>>>>12>>>>>>>,,>@+++O",
"O+++@3453333333443333333443@+++O",
"O+++@#66#66#66#6#666#66#66#@+++O",
"O+++@#&:#;:#;:#;#:;:#;:#;:#@+++O",
"O+++@#&:#;:#;:#;#&;:#&:#;:#@+++O",
"O+++@#&:#;7#;:#;#&;:#&:#;:#@+++O",
"O+++@#&:#&:#;:#;#$&:#&:#&:#@+++O",
"O+++@#&:#&:#;:#;##&:#&888:#@+++O",
"O+++@#&:#&:#;:#$&#&:#&909:#@+++O",
"O+++@#&:#&:#;:#&&#&:#qwwwq#@+++O",
"O+++@#&:#&;#;;#;&#&;8:;#&:8@+++O",
"O+++@#&:#&;#;;#;&#&;q:;#&;q@+++O",
"O+++@#&:#&;##;#;&#&;#9eee9#@+++O",
"O+++@#;;#&r7#;#;&#&;#:www;#@+++O",
"O+++@#;;#;;:#;#;;#&##:;#;;#@+++O",
"O+++@#;;#;:#;;#;;#:#::;#;;#@+++O",
"O+++@>t<>>>>>>>t<>>>>>>>t<>@+++O",
"O+++@3443333333443333333443@+++O",
"O+++@#66#66#66#66#66#66#66#@+++O",
"O+++@#;;##;#;;#;;#;;#;;#;;#@+++O",
"O+++@#;;r#;#r;#;&#;;#;;#;;#@+++O"
};
