/* XPM */
static char *_e114a87a3d54cf9800d19eddb3b780b39JWl06K5GvUtUbc[] = {
/* columns rows colors chars-per-pixel */
"32 32 14 1 ",
"  c #656565",
". c #717171",
"X c gray27",
"o c #535353",
"O c #17394A",
"+ c #0C1317",
"@ c #FCA89D",
"# c #4C63E0",
"$ c #1E1B80",
"% c #472138",
"& c #70162B",
"* c #A84111",
"= c #A5B5D4",
"- c #31314B",
/* pixels */
" .Xo.        o.       .o.       ",
".XooX.     ..oX.......XoX.......",
"oooooX.....XXooooooooooooooooooo",
"   oooXXXXXooOOOOO       oooo   ",
"    oo     oOOOOOOO       o     ",
"    o      OO++OOOOO      o     ",
"   .o      O++++OOOOO     o     ",
"...Xo.     O++++OOOO.    .o.    ",
"XXXooX..   O+@++OOOOX....XoX....",
"ooooooXX...O++++OOOO ooooooooooo",
"     ooooooOO@@OOOO   oo      oo",
"         oooOOOOO+OO##o        o",
"          oO+OOO+OO###o.       o",
"          $#OOOOOO#####X       o",
"         .$##OOOO######o..    .o",
"XXXXX....X$###O######## XX....Xo",
"   ooXXXXo$$#######  ### oooooo ",
"     ooo  $$%&&&%%%  ###    oo  ",
"      o  %%#########  **     o  ",
"     .o %%%#########  ***   .o. ",
".....Xo.%=%##########.***...XoX.",
"XXXXXooX==.%#######&&o*=*ooooooX",
"   oooo===X%%%###&&&&&o=*  oooo ",
"    oo===o%%%%%  &&&&&==    oo  ",
"    o==   %%%%%   &&&&==     o  ",
"   .o     %%%%     &&===     o. ",
"...Xo.   .%%%    ..&&==     .oX.",
"XXXooX...X---....XXX==&.....XooX",
" oooooooo----XXXXo  ***oXXXoo   ",
"  oo    -----oo     ***oo       ",
"  o          o      ***o        ",
" .o          o         o        "
};
