/* XPM */
static char *_ad5061a27b646c09fd99c187d7dfa73wuxvxx3yGotA168H[] = {
/* columns rows colors chars-per-pixel */
"32 32 28 1 ",
"  c None",
". c #3F4B1F",
"X c #231C19",
"o c #5F472D",
"O c #7A8875",
"+ c #495A22",
"@ c #413122",
"# c #1E243C",
"$ c #3A231F",
"% c #102D63",
"& c #33211D",
"* c #70655A",
"= c #9C918F",
"- c #15387C",
"; c #503C28",
": c black",
"> c #3C4B76",
", c #293A6F",
"< c #133982",
"1 c #0E2244",
"2 c #231C19",
"3 c #95D836",
"4 c #D89E58",
"5 c #4DBD27",
"6 c #B66B3A",
"7 c #67332D",
"8 c #0A7030",
"9 c white",
/* pixels */
" .222222222222.XXo2222222222222o",
"O23333333333332+@244444442224442",
"23333355553533322466466664246642",
"23533353555553322466667667246772",
"23533355588555322467766672247722",
"28555555588555822467766772222222",
"28855585555558822277777722444442",
"22888888888888222222222224664642",
"22222222222222222244422246466672",
"26777777777777622467642466667772",
"24646666666664422466672444667772",
"24666666677666422444672444666672",
"24667766677676422444672466676772",
"27667766666666722466772466667772",
"#27777777777772$247772277777772$",
"%&222222222222&X*2222222222222= ",
"-;222222222222;X::222222222222::",
">24444444444442o:24444422244442:",
"24446444666644422466446424644642",
"24466444666664422446446724644672",
"24666444644666422466666724666672",
"24646666644666422467766722466772",
"24666666666666422467766672277722",
"24667766666646422466667672222222",
"27667764466666722277777722244422",
"27666664466666722222222222466642",
"27676666666667722244444222467772",
"27666666677666722464466422467772",
"27667766677676722464467724666672",
"27667766666666722466666724646772",
",27777777777772$:27777722277772:",
"<#222222222222#1::222222222222::"
};
